<svg width="24" height="25" viewBox="0 0 24 25" fill="none" xmlns="http://www.w3.org/2000/svg">
<g id="target">
<path id="Vector" opacity="0.2" d="M12 22.8999C17.5228 22.8999 22 18.4228 22 12.8999C22 7.37705 17.5228 2.8999 12 2.8999C6.47715 2.8999 2 7.37705 2 12.8999C2 18.4228 6.47715 22.8999 12 22.8999Z" stroke="#6D93F7" stroke-width="2" stroke-linecap="round" stroke-linejoin="round"/>
<path id="Vector_2" opacity="0.5" d="M12 18.8999C15.3137 18.8999 18 16.2136 18 12.8999C18 9.58619 15.3137 6.8999 12 6.8999C8.68629 6.8999 6 9.58619 6 12.8999C6 16.2136 8.68629 18.8999 12 18.8999Z" stroke="#6D93F7" stroke-width="2" stroke-linecap="round" stroke-linejoin="round"/>
<path id="Vector_3" d="M12 14.8999C13.1046 14.8999 14 14.0045 14 12.8999C14 11.7953 13.1046 10.8999 12 10.8999C10.8954 10.8999 10 11.7953 10 12.8999C10 14.0045 10.8954 14.8999 12 14.8999Z" stroke="#6D93F7" stroke-width="2" stroke-linecap="round" stroke-linejoin="round"/>
</g>
</svg>
