<svg width="24" height="24" viewBox="0 0 24 24" fill="none" xmlns="http://www.w3.org/2000/svg">
<g id="target">
<path id="Vector" opacity="0.2" d="M12 22.0022C17.5228 22.0022 22 17.525 22 12.0022C22 6.47935 17.5228 2.0022 12 2.0022C6.47715 2.0022 2 6.47935 2 12.0022C2 17.525 6.47715 22.0022 12 22.0022Z" stroke="#5BABB6" stroke-width="2" stroke-linecap="round" stroke-linejoin="round"/>
<path id="Vector_2" opacity="0.5" d="M12 18.0022C15.3137 18.0022 18 15.3159 18 12.0022C18 8.68849 15.3137 6.0022 12 6.0022C8.68629 6.0022 6 8.68849 6 12.0022C6 15.3159 8.68629 18.0022 12 18.0022Z" stroke="#5BABB6" stroke-width="2" stroke-linecap="round" stroke-linejoin="round"/>
<path id="Vector_3" d="M12 14.0022C13.1046 14.0022 14 13.1068 14 12.0022C14 10.8976 13.1046 10.0022 12 10.0022C10.8954 10.0022 10 10.8976 10 12.0022C10 13.1068 10.8954 14.0022 12 14.0022Z" stroke="#5BABB6" stroke-width="2" stroke-linecap="round" stroke-linejoin="round"/>
</g>
</svg>
