<svg width="571" height="145" viewBox="0 0 571 145" fill="none" xmlns="http://www.w3.org/2000/svg">
<path d="M154.986 41.3676C150.264 38.3823 144.682 37.1029 139.101 37.1029C133.52 37.1029 128.368 38.3823 123.645 40.9412C118.923 43.5 115.059 46.9118 112.054 51.6029C109.048 55.8676 107.761 60.9853 107.331 66.5294H104.755H103.038H39.4981V101.074H68.2628V106.618H30.9116V60.9853H0.429688V110.029C0.429688 115.574 1.71766 120.691 4.72292 125.382C7.29886 130.074 11.1628 133.912 15.8853 136.471C20.6079 139.029 25.7598 140.735 31.341 140.735H68.2628C73.844 140.735 78.5665 139.456 83.2891 136.471C87.5823 133.912 91.4462 130.074 93.5928 125.382C96.1688 120.691 97.4568 115.574 97.4568 110.029V100.647H103.038H104.326H138.672C144.682 100.647 149.834 99.3676 154.557 96.3823C159.279 93.3971 163.143 89.5588 166.148 84.8676C169.154 80.1765 170.442 74.6324 170.442 69.0882C170.442 63.1176 169.154 58 166.148 53.3088C164.002 48.1912 159.709 44.3529 154.986 41.3676ZM142.106 72.0735C141.248 72.9265 140.389 73.3529 139.101 73.3529C137.813 73.3529 136.954 72.9265 136.096 72.0735C135.237 71.2206 134.808 69.9412 134.808 69.0882C134.808 67.8088 135.237 66.9559 136.096 66.1029C136.954 65.25 137.813 64.8235 139.101 64.8235C140.389 64.8235 141.248 65.25 142.106 66.1029C142.965 66.9559 143.394 67.8088 143.394 69.0882C143.394 69.9412 142.965 70.7941 142.106 72.0735Z" fill="url(#paint0_linear_1002_7676)" fill-opacity="0.09"/>
<path d="M151.977 4.69118H125.359V31.1324H151.977V4.69118Z" fill="url(#paint1_linear_1002_7676)" fill-opacity="0.09"/>
<path d="M262.75 45.6324L253.734 31.9853L254.593 31.5588C256.739 31.9853 258.886 32.4118 261.462 32.4118C264.467 32.4118 267.043 31.9853 269.619 31.5588L277.347 29.8529L270.907 0L224.111 10.2353V40.9412L239.566 63.9706L238.708 66.1029H217.671H216.383H209.943V9.38235H179.461V70.3677C179.461 75.9118 180.749 81.0294 183.754 85.7206C186.33 90.4118 190.194 94.25 194.917 96.8088C199.639 99.3677 204.791 101.074 210.372 101.074H216.812H218.1H233.126C239.996 101.074 246.006 99.3677 251.158 95.9559C256.739 92.5441 260.603 87.8529 264.038 82.3088C267.043 76.7647 268.76 70.7941 268.76 64.8235C268.76 57.5735 266.614 51.1765 262.75 45.6324Z" fill="url(#paint2_linear_1002_7676)" fill-opacity="0.09"/>
<path d="M431.9 13.6471H387.68V40.0882H431.9V13.6471Z" fill="url(#paint3_linear_1002_7676)" fill-opacity="0.09"/>
<path d="M476.978 31.9853C479.983 31.9853 482.559 31.5588 485.135 31.1324L492.863 29.4265L486.423 0L439.627 10.2353V40.9412L455.082 63.9706L454.224 66.1029H431.899H431.47H431.04H424.6V46.0588H394.118V66.1029H325.856H324.568H314.264V46.0588H283.782V99.3677L266.609 116.426L288.076 137.75L300.097 125.809C303.961 121.971 306.966 117.706 309.112 113.015C311.259 108.324 312.976 103.632 313.406 98.0882L314.264 97.6618C317.27 99.3677 320.275 100.221 323.709 100.221H324.997H389.825C394.118 100.221 397.553 99.3677 400.558 97.6618C403.993 95.5294 406.139 93.3971 407.427 90.4118H408.286C409.574 93.3971 412.15 95.5294 415.155 97.6618C418.59 99.3677 422.454 100.221 426.318 100.221H429.323H429.752H430.182H446.925C453.794 100.221 459.805 98.5147 464.957 95.1029C470.538 91.6912 474.402 87 477.836 81.4559C481.271 75.9118 482.559 69.9412 482.559 63.9706C482.559 56.7206 480.842 50.75 476.978 44.7794L467.962 31.1324L468.821 30.7059C472.255 31.5588 474.402 31.9853 476.978 31.9853Z" fill="url(#paint4_linear_1002_7676)" fill-opacity="0.09"/>
<path d="M567.139 55.8676L558.123 19.6176L527.212 27.7206L537.516 66.1029H522.06V52.4559H491.578V70.3676C491.578 75.9118 492.866 81.0294 495.442 85.7206C498.018 90.4118 501.882 93.8235 506.604 96.8088C511.327 99.3677 516.479 101.074 522.06 101.074H532.364C539.233 101.074 545.244 99.3677 550.825 96.3824C556.406 92.9706 560.699 88.7059 564.134 83.1618C567.139 77.6176 568.856 71.6471 568.856 65.25C568.427 61.4118 567.998 58.4265 567.139 55.8676Z" fill="url(#paint5_linear_1002_7676)" fill-opacity="0.09"/>
<defs>
<linearGradient id="paint0_linear_1002_7676" x1="85.4357" y1="37.1029" x2="85.4357" y2="140.735" gradientUnits="userSpaceOnUse">
<stop/>
<stop offset="1" stop-opacity="0.38"/>
</linearGradient>
<linearGradient id="paint1_linear_1002_7676" x1="138.668" y1="4.69118" x2="138.668" y2="31.1324" gradientUnits="userSpaceOnUse">
<stop/>
<stop offset="1" stop-opacity="0.38"/>
</linearGradient>
<linearGradient id="paint2_linear_1002_7676" x1="228.404" y1="0" x2="228.404" y2="101.074" gradientUnits="userSpaceOnUse">
<stop/>
<stop offset="1" stop-opacity="0.38"/>
</linearGradient>
<linearGradient id="paint3_linear_1002_7676" x1="409.79" y1="13.6471" x2="409.79" y2="40.0882" gradientUnits="userSpaceOnUse">
<stop/>
<stop offset="1" stop-opacity="0.38"/>
</linearGradient>
<linearGradient id="paint4_linear_1002_7676" x1="379.736" y1="0" x2="379.736" y2="137.75" gradientUnits="userSpaceOnUse">
<stop/>
<stop offset="1" stop-opacity="0.38"/>
</linearGradient>
<linearGradient id="paint5_linear_1002_7676" x1="530.217" y1="19.6176" x2="530.217" y2="101.074" gradientUnits="userSpaceOnUse">
<stop/>
<stop offset="1" stop-opacity="0.38"/>
</linearGradient>
</defs>
</svg>
