<svg width="24" height="25" viewBox="0 0 24 25" fill="none" xmlns="http://www.w3.org/2000/svg">
<g id="phone-forwarded" clip-path="url(#clip0_204_2109)">
<path id="Vector" d="M19 1.16479L23 5.16479L19 9.16479" stroke="#E25020" stroke-width="2" stroke-linecap="round" stroke-linejoin="round"/>
<path id="Vector_2" d="M15 5.16479H23" stroke="#E25020" stroke-width="2" stroke-linecap="round" stroke-linejoin="round"/>
<path id="Vector_3" d="M22.0004 17.0848V20.0848C22.0016 20.3633 21.9445 20.639 21.8329 20.8941C21.7214 21.1493 21.5577 21.3784 21.3525 21.5667C21.1473 21.7549 20.905 21.8983 20.6412 21.9875C20.3773 22.0767 20.0978 22.1099 19.8204 22.0848C16.7433 21.7504 13.7874 20.6989 11.1904 19.0148C8.77425 17.4795 6.72576 15.431 5.19042 13.0148C3.5004 10.406 2.44866 7.43579 2.12042 4.3448C2.09543 4.06827 2.1283 3.78956 2.21692 3.52642C2.30555 3.26329 2.44799 3.02149 2.63519 2.81642C2.82238 2.61135 3.05023 2.44751 3.30421 2.33532C3.5582 2.22313 3.83276 2.16506 4.11042 2.1648H7.11042C7.59573 2.16002 8.06621 2.33188 8.43418 2.64833C8.80215 2.96479 9.0425 3.40425 9.11042 3.8848C9.23704 4.84487 9.47187 5.78753 9.81042 6.6948C9.94497 7.05272 9.97408 7.44171 9.89433 7.81568C9.81457 8.18965 9.62928 8.53291 9.36042 8.8048L8.09042 10.0748C9.51398 12.5783 11.5869 14.6512 14.0904 16.0748L15.3604 14.8048C15.6323 14.5359 15.9756 14.3506 16.3495 14.2709C16.7235 14.1911 17.1125 14.2203 17.4704 14.3548C18.3777 14.6934 19.3204 14.9282 20.2804 15.0548C20.7662 15.1233 21.2098 15.368 21.527 15.7423C21.8441 16.1166 22.0126 16.5944 22.0004 17.0848Z" stroke="#74564C" stroke-width="2" stroke-linecap="round" stroke-linejoin="round"/>
</g>
<defs>
<clipPath id="clip0_204_2109">
<rect width="24" height="24" fill="white" transform="translate(0 0.164795)"/>
</clipPath>
</defs>
</svg>
