<svg viewBox="0 0 186 186" fill="none" xmlns="http://www.w3.org/2000/svg">
<path id="Vector" fill-rule="evenodd" clip-rule="evenodd" d="M82.326 91.8499C81.0802 89.2715 77.1758 88.7726 75.5971 90.3523C74.8492 91.1011 75.0982 92.6817 76.5109 93.4305C77.8331 94.0827 79.1623 94.7206 80.4983 95.3439C84.8186 97.4234 85.3996 100.668 85.3166 102.165C84.9016 109.153 78.7536 109.569 76.2619 109.652C73.6034 109.735 70.9448 108.653 70.1139 108.155C69.366 107.739 69.0341 107.323 69.0341 107.323L70.2808 101.749H70.4468C70.4468 101.749 71.3607 105.908 75.93 105.908C79.2534 105.908 79.6684 103.496 79.0035 102.414C78.0896 101 75.68 100.251 73.5204 99.169C71.8596 98.3373 69.284 96.2578 69.449 92.5978C69.7819 87.2741 74.5172 85.6106 78.0896 85.6106C81.5791 85.6106 83.4898 86.9412 83.4898 86.9412C84.0707 87.2741 84.3207 87.5231 84.3207 87.5231L82.8249 92.5978V92.6807H82.658C82.6589 92.6817 82.6589 92.5157 82.326 91.8499ZM120.708 100.169C116.804 88.4398 115.973 86.2773 115.973 86.2773H108.412V86.4433C109.493 86.5263 109.41 87.9409 109.16 88.6896C109.16 88.6067 103.346 106.908 102.847 108.987H108.663V108.82C108.58 108.82 107.748 108.321 107.831 106.907C107.999 105.825 108.58 103.58 108.58 103.58H114.81C115.226 104.91 115.392 105.576 115.64 106.158C116.388 108.487 116.969 108.903 116.969 108.903H124.529V108.82C123.698 108.737 123.201 107.49 122.95 106.824C122.619 105.992 122.286 105.243 120.708 100.169ZM113.646 100.002H109.493L109.576 99.8348L111.569 92.7647V92.5978L111.652 92.7647C111.818 93.3465 112.733 96.5086 113.729 99.8348L113.812 100.002H113.646ZM152.691 82.4494C154.768 81.1188 155.267 78.7894 155.101 76.709V76.626C155.101 76.626 152.442 79.0384 141.476 83.1152V83.1982C141.476 83.1982 149.95 84.03 152.691 82.4494ZM102.68 92.5157C101.849 89.8534 99.2743 89.1885 97.8616 89.3545C96.1169 89.6044 92.9603 91.185 92.7943 96.0097C92.5444 102.914 96.0339 104.994 98.4435 105.41C102.016 105.992 103.179 103.83 103.345 103.663H103.511C102.265 108.238 100.437 109.652 96.6158 109.652C92.9603 109.652 86.5633 106.657 86.3973 97.8393C86.3144 88.8547 92.9603 85.6936 97.5296 85.5267C102.099 85.3607 104.176 87.1911 104.176 87.1911C104.508 87.5231 104.675 87.773 104.675 87.773L102.847 92.5978H102.764L102.68 92.5157ZM53.0005 108.986C52.9175 108.819 52.5856 107.656 52.5856 106.241V94.1783C52.5856 94.1783 52.8345 86.5254 51.0068 86.4424V86.2764H67.2893L66.5415 91.7669V91.9329H66.4585V91.7669C66.2925 91.434 66.0426 90.1863 64.1319 90.1863C62.4702 90.1863 59.7295 90.1033 59.1476 90.1033H59.0646V95.011L59.1476 94.928H66.0426L65.2947 99.5029H65.2117V99.4199C65.2117 99.4199 65.1287 98.8371 63.9659 98.8371C62.8861 98.8371 59.7286 98.7541 59.1476 98.7541H59.0646V104.992H59.1476C59.6465 105.075 62.4702 105.408 64.7968 104.909C67.6213 104.244 68.1193 103.08 68.2023 102.996L68.3683 103.079L66.8725 108.985L53.0005 108.986ZM142.058 108.986C141.892 108.819 141.642 107.656 141.642 106.241V94.1783C141.642 94.1783 141.81 86.5254 140.064 86.4424V86.2764H156.348L155.599 91.7669V91.9329H155.516C155.516 91.8499 155.433 91.7669 155.433 91.7669C155.35 91.434 155.019 90.1863 153.19 90.1863C151.527 90.1863 148.787 90.1033 148.205 90.1033H148.122V95.011L148.205 94.928H155.019L154.354 99.5029H154.269V99.4199C154.269 99.4199 154.103 98.8371 153.024 98.8371C151.86 98.8371 148.703 98.7541 148.204 98.7541H148.121V104.992H148.204C148.703 105.075 151.527 105.408 153.854 104.909C156.678 104.244 157.177 103.08 157.26 102.996L157.343 103.079L155.931 108.985L142.058 108.986ZM132.753 108.903V108.82C132.67 108.737 131.424 108.57 131.424 105.909V98.755H131.507C132.006 98.755 134.913 98.838 136.077 98.838C137.157 98.838 137.323 99.4208 137.323 99.4208V99.5038H137.406C137.406 99.5038 137.822 96.4265 138.071 94.929H131.508L131.425 95.012V90.1042H131.508C132.09 90.1042 134.583 90.1872 136.161 90.1872C138.071 90.1872 138.403 91.4349 138.487 91.7678V91.9338H138.653V91.7678C138.902 90.1042 139.401 86.2773 139.401 86.2773H123.368V86.4433C125.111 86.6093 124.945 94.1792 124.945 94.1792V106.491C124.945 106.491 124.862 108.321 125.361 108.903H132.753Z" fill="white"/>
<path id="Vector_2" fill-rule="evenodd" clip-rule="evenodd" d="M29.7386 101.249C29.7386 95.8425 29.6556 90.9339 29.6556 90.1851V90.0182C29.6556 90.1012 29.7386 90.1851 29.7386 90.1851C29.8216 90.2681 30.9015 91.3498 36.2186 99.7515C40.621 106.74 40.206 106.074 40.7879 106.823C41.2868 107.654 41.9508 108.902 43.4465 108.902H49.0956C49.0956 108.902 48.7636 107.571 48.7636 103.08V82.865H136.242C136.242 82.865 138.984 82.782 141.144 78.4562L140.976 78.3732C140.893 78.5401 140.645 78.6231 139.73 78.6231H41.9508V78.7061C41.9508 78.7061 43.3626 79.6209 43.3626 85.5264C43.3626 90.518 43.4456 95.9246 43.4456 95.9246V97.5061C43.4456 97.4231 43.3626 97.3392 43.3626 97.3392C42.9476 96.5904 36.9656 86.857 36.0526 85.4434C36.0526 85.4434 33.3941 81.3674 31.9813 79.8699C30.8185 78.6222 29.7377 78.6222 29.1568 78.6222H22.7598V78.7882C22.8428 78.7882 24.3376 79.7029 24.3376 86.2752V101.248C24.3376 108.069 22.7598 108.818 22.7598 108.818V108.901H28.7409C29.7377 108.901 29.7377 108.152 29.7377 107.986L29.7386 101.249ZM159.089 107.073C159.089 105.908 160.001 105.076 161.165 105.076C162.244 105.076 163.159 105.908 163.159 107.073C163.159 108.321 162.244 109.152 161.165 109.152C160.001 109.152 159.089 108.32 159.089 107.073ZM161.165 108.819C162.078 108.819 162.743 108.07 162.743 107.072C162.743 106.157 162.078 105.408 161.165 105.408C160.167 105.408 159.503 106.157 159.503 107.072C159.503 108.071 160.167 108.819 161.165 108.819ZM160.666 108.32H160.335V105.908H161.248C161.83 105.908 162.078 106.158 162.078 106.574C162.078 106.99 161.829 107.239 161.496 107.239L162.161 108.321H161.747L161.082 107.239H160.666V108.32ZM161.165 106.99C161.414 106.99 161.664 106.907 161.664 106.574C161.664 106.324 161.414 106.241 161.165 106.241H160.666V106.99H161.165Z" fill="white"/>
</svg>
