<svg width="100" height="24" viewBox="0 0 100 24" fill="none" xmlns="http://www.w3.org/2000/svg">
<g id="Group 273">
<g id="Group">
<path id="Vector" fill-rule="evenodd" clip-rule="evenodd" d="M42.5575 11.0902C41.6854 9.34559 38.9524 9.00802 37.8474 10.0769C37.3239 10.5835 37.4981 11.653 38.487 12.1597C39.4125 12.6011 40.3429 13.0327 41.2781 13.4544C44.3022 14.8615 44.7089 17.0566 44.6508 18.07C44.3603 22.7984 40.0569 23.0798 38.3128 23.136C36.4518 23.1921 34.5909 22.4602 34.0093 22.1227C33.4858 21.8412 33.2534 21.5598 33.2534 21.5598L34.1261 17.7885H34.2423C34.2423 17.7885 34.882 20.6027 38.0804 20.6027C40.4067 20.6027 40.6972 18.9704 40.2318 18.2384C39.5921 17.2813 37.9054 16.7746 36.3937 16.0427C35.2312 15.4799 33.4283 14.0728 33.5439 11.5963C33.7769 7.99407 37.0915 6.86842 39.5921 6.86842C42.0346 6.86842 43.3721 7.76881 43.3721 7.76881C43.7787 7.99406 43.9537 8.16254 43.9537 8.16254L42.9067 11.5963V11.6524H42.7899C42.7905 11.653 42.7905 11.5407 42.5575 11.0902ZM69.424 16.7191C66.691 8.78277 66.1094 7.31955 66.1094 7.31955H60.817V7.43187C61.5736 7.48802 61.5155 8.44519 61.3405 8.95186C61.3405 8.8957 57.2707 21.279 56.9215 22.6861H60.9926V22.5732C60.9345 22.5732 60.3523 22.2356 60.4104 21.2784C60.5279 20.5465 60.9345 19.0271 60.9345 19.0271H65.2954C65.5866 19.9275 65.7027 20.378 65.8764 20.7718C66.3999 22.3479 66.8065 22.6293 66.8065 22.6293H72.0989V22.5732C71.5167 22.517 71.1687 21.6728 70.9932 21.2223C70.7614 20.6594 70.5284 20.1528 69.424 16.7191ZM64.4808 16.6061H61.5736L61.6317 16.4932L63.0272 11.7092V11.5963L63.0853 11.7092C63.2015 12.1029 63.8418 14.2425 64.5389 16.4932L64.597 16.6061H64.4808ZM91.8114 4.72944C93.2651 3.82905 93.6143 2.2529 93.4981 0.84522V0.789062C93.4981 0.789062 91.6372 2.42137 83.961 5.17995V5.23611C83.961 5.23611 89.8931 5.79893 91.8114 4.72944ZM56.8047 11.5407C56.2231 9.73931 54.4209 9.28943 53.432 9.40174C52.2108 9.57084 50.0012 10.6403 49.8851 13.9049C49.7101 18.5766 52.1527 19.9843 53.8393 20.2657C56.3399 20.6594 57.1539 19.1962 57.2701 19.0833H57.3863C56.5142 22.1788 55.2349 23.136 52.56 23.136C50.0012 23.136 45.5235 21.1093 45.4073 15.1429C45.3492 9.06355 50.0012 6.92458 53.1996 6.81164C56.398 6.69933 57.8517 7.9379 57.8517 7.9379C58.084 8.16253 58.2015 8.33163 58.2015 8.33163L56.9215 11.5963H56.8634L56.8047 11.5407ZM22.0303 22.6855C21.9722 22.5725 21.7398 21.7851 21.7398 20.8279V12.6657C21.7398 12.6657 21.9141 7.4874 20.6348 7.43124V7.31893H32.0321L31.5087 11.0341V11.1464H31.4506V11.0341C31.3344 10.8088 31.1594 9.96457 29.822 9.96457C28.6588 9.96457 26.7404 9.90841 26.3331 9.90841H26.275V13.2292L26.3331 13.173H31.1594L30.636 16.2686H30.5779V16.2124C30.5779 16.2124 30.5198 15.818 29.7058 15.818C28.9499 15.818 26.7398 15.7619 26.3331 15.7619H26.275V19.9831H26.3331C26.6823 20.0392 28.6588 20.2645 30.2874 19.9269C32.2645 19.4764 32.6131 18.6889 32.6712 18.6322L32.7874 18.6883L31.7404 22.6849L22.0303 22.6855ZM84.3683 22.6855C84.2521 22.5725 84.0772 21.7851 84.0772 20.8279V12.6657C84.0772 12.6657 84.1947 7.4874 82.9728 7.43124V7.31893H94.3708L93.8467 11.0341V11.1464H93.7886C93.7886 11.0902 93.7305 11.0341 93.7305 11.0341C93.6724 10.8088 93.4407 9.96457 92.1607 9.96457C90.9968 9.96457 89.0784 9.90841 88.6711 9.90841H88.6131V13.2292L88.6711 13.173H93.4407L92.9753 16.2686H92.9159V16.2124C92.9159 16.2124 92.7997 15.818 92.0445 15.818C91.2299 15.818 89.0197 15.7619 88.6705 15.7619H88.6124V19.9831H88.6705C89.0197 20.0392 90.9968 20.2645 92.6254 19.9269C94.6019 19.4764 94.9517 18.6889 95.0092 18.6322L95.0673 18.6883L94.079 22.6849L84.3683 22.6855ZM77.8554 22.6293V22.5732C77.7973 22.517 76.9252 22.4041 76.9252 20.6033V15.7625H76.9833C77.3325 15.7625 79.3671 15.8187 80.1817 15.8187C80.9382 15.8187 81.0544 16.213 81.0544 16.213V16.2692H81.1125C81.1125 16.2692 81.4036 14.187 81.5779 13.1737H76.9839L76.9258 13.2298V9.90903H76.9839C77.3912 9.90903 79.136 9.96519 80.2404 9.96519C81.5779 9.96519 81.8102 10.8094 81.869 11.0347V11.147H81.9852V11.0347C82.1595 9.90903 82.5087 7.31955 82.5087 7.31955H71.2856V7.43187C72.5062 7.54418 72.39 12.6664 72.39 12.6664V20.997C72.39 20.997 72.3319 22.2356 72.6811 22.6293H77.8554Z" fill="white"/>
<path id="Vector_2" fill-rule="evenodd" clip-rule="evenodd" d="M5.74638 17.4505C5.74638 13.7922 5.68829 10.4708 5.68829 9.96413V9.85119C5.68829 9.90735 5.74638 9.96413 5.74638 9.96413C5.80447 10.0203 6.56034 10.7522 10.2822 16.4372C13.3638 21.1657 13.0733 20.7152 13.4806 21.2218C13.8298 21.7847 14.2946 22.6289 15.3416 22.6289H19.2958C19.2958 22.6289 19.0634 21.7285 19.0634 18.6891V5.01105H80.2964C80.2964 5.01105 82.2154 4.95489 83.7278 2.02784L83.6103 1.97168C83.5522 2.08462 83.3786 2.14078 82.7376 2.14078H14.2946V2.19693C14.2946 2.19693 15.2828 2.81592 15.2828 6.81183C15.2828 10.1894 15.3409 13.8477 15.3409 13.8477V14.9178C15.3409 14.8617 15.2828 14.8049 15.2828 14.8049C14.9924 14.2982 10.8051 7.71222 10.166 6.75567C10.166 6.75567 8.3051 3.99772 7.31621 2.98439C6.50225 2.14015 5.74574 2.14015 5.33908 2.14015H0.861328V2.25247C0.919422 2.25247 1.96576 2.87145 1.96576 7.31849V17.4499C1.96576 22.0654 0.861328 22.5721 0.861328 22.5721V22.6283H5.04796C5.74574 22.6283 5.74574 22.1216 5.74574 22.0093L5.74638 17.4505ZM96.2883 21.3909C96.2883 20.6029 96.9274 20.04 97.742 20.04C98.4972 20.04 99.1375 20.6029 99.1375 21.3909C99.1375 22.2358 98.4972 22.798 97.742 22.798C96.9274 22.798 96.2883 22.2352 96.2883 21.3909ZM97.742 22.5727C98.381 22.5727 98.8464 22.0661 98.8464 21.3903C98.8464 20.7713 98.381 20.2647 97.742 20.2647C97.0436 20.2647 96.5782 20.7713 96.5782 21.3903C96.5782 22.0667 97.0436 22.5727 97.742 22.5727ZM97.3928 22.2352H97.161V20.6029H97.8001C98.2074 20.6029 98.381 20.772 98.381 21.0534C98.381 21.3348 98.2067 21.5039 97.9737 21.5039L98.4391 22.2358H98.1493L97.6839 21.5039H97.3928V22.2352ZM97.742 21.3348C97.9163 21.3348 98.0912 21.2786 98.0912 21.0534C98.0912 20.8843 97.9163 20.8281 97.742 20.8281H97.3928V21.3348H97.742Z" fill="white"/>
</g>
</g>
</svg>
