<svg width="151" height="27" viewBox="0 0 151 27" fill="none" xmlns="http://www.w3.org/2000/svg">
<g id="Group 312">
<path id="Union" fill-rule="evenodd" clip-rule="evenodd" d="M68.1276 2.80756H65.3922V19.4337H68.1276V2.80756ZM10.4812 14.9032C10.4812 15.5657 10.353 16.1747 10.1073 16.7304H10.0859C9.84014 17.286 9.49821 17.7561 9.0708 18.1622C8.6434 18.5682 8.13051 18.8781 7.53214 19.1025C6.93377 19.3268 6.28198 19.4337 5.58744 19.4337C4.89291 19.4337 4.26248 19.3268 3.68548 19.1345C3.10848 18.9422 2.61697 18.6537 2.21093 18.2904C1.80489 17.9271 1.48434 17.489 1.25995 16.9868C1.03556 16.4846 0.928711 15.929 0.928711 15.2985C0.928711 14.7857 0.992822 14.2941 1.13173 13.824C1.25995 13.3538 1.46297 12.8944 1.71941 12.4242C1.98654 11.9541 2.3071 11.4839 2.70245 11.0138C3.0978 10.5436 3.54658 10.0308 4.07015 9.47513L2.84135 8.24633L4.68989 6.25889C5.80114 7.34878 6.73075 8.28907 7.46803 9.10115C8.20531 9.91322 8.80368 10.6398 9.25245 11.2916C9.70123 11.9434 10.0218 12.5525 10.2034 13.1295C10.3851 13.7065 10.4812 14.2941 10.4812 14.9032ZM5.68361 16.4846C6.34609 16.4846 6.85898 16.3029 7.21159 15.9503C7.5642 15.587 7.74584 15.1703 7.74584 14.6895C7.74584 14.4758 7.71379 14.2621 7.66036 14.0591C7.60694 13.856 7.50009 13.621 7.36118 13.3752C7.22227 13.1295 7.00857 12.841 6.73075 12.5311C6.45294 12.2212 6.10033 11.8472 5.67292 11.4198C5.23483 11.8472 4.87154 12.2319 4.60441 12.5631C4.33728 12.8944 4.12357 13.1936 3.98467 13.45C3.84576 13.7065 3.74959 13.9415 3.70685 14.1445C3.66411 14.3476 3.64274 14.5506 3.64274 14.7429C3.64274 15.2024 3.8137 15.6084 4.15563 15.961C4.49755 16.3136 5.02113 16.4846 5.68361 16.4846ZM21.4549 16.4845C22.6516 16.4845 23.25 15.9075 23.25 14.7428L23.2393 14.7321V11.5693H25.9747V14.9245C25.9747 16.4097 25.6007 17.5316 24.8528 18.2903C24.1048 19.0489 23.047 19.4336 21.69 19.4336H18.6874C18.3348 19.4336 17.9715 19.3802 17.6189 19.2626C17.2663 19.1451 16.9564 18.8993 16.7107 18.5467V19.0062C16.7107 19.9785 16.5504 20.8761 16.2299 21.7202C15.9093 22.5644 15.4712 23.2909 14.9049 23.9214C14.3493 24.5518 13.6761 25.0433 12.8961 25.3959C12.1161 25.7485 11.2719 25.9302 10.3637 25.9302H8.67545L8.53654 23.0024H9.65848C10.4599 23.0024 11.1437 22.8956 11.71 22.6712C12.2657 22.4468 12.7358 22.1476 13.0884 21.7737C13.4517 21.389 13.7082 20.9616 13.8684 20.4807C14.0287 19.9999 14.1142 19.5084 14.1142 19.0062V11.58H16.8496V14.7749C16.8496 15.3412 17.0206 15.7686 17.3732 16.0571C17.7151 16.3456 18.1639 16.4845 18.6981 16.4845H21.4549ZM36.6599 11.0992C36.2431 10.6718 35.773 10.3619 35.2281 10.1589C34.6831 9.96657 34.1061 9.85972 33.4971 9.85972C32.7491 9.85972 32.0866 9.99863 31.5096 10.2764C30.9326 10.5543 30.4625 10.9282 30.0778 11.3877C29.6931 11.8578 29.4046 12.3921 29.2016 13.0118C28.9986 13.6316 28.9024 14.2834 28.9024 14.9779C28.9024 15.6724 28.9665 16.3029 29.1055 16.8585C29.2444 17.4141 29.4794 17.8843 29.8214 18.2689C30.1633 18.6536 30.6227 18.9421 31.2211 19.1451C31.8088 19.3375 32.5674 19.4443 33.4971 19.4443H35.3242C35.2922 19.9251 35.1853 20.3846 35.0037 20.8227C34.822 21.2608 34.5763 21.6455 34.2557 21.966C33.9351 22.2866 33.5291 22.543 33.0376 22.7353C32.5461 22.9277 31.9584 23.0132 31.2852 23.0132H28.5498L28.7101 25.9409H31.4241C32.4392 25.9409 33.3688 25.7486 34.1809 25.3746C35.0037 25.0006 35.6982 24.4984 36.2645 23.8573C36.8308 23.2269 37.2582 22.4896 37.5681 21.6455C37.8673 20.8013 38.0276 19.9251 38.0276 19.0169V15.2664C38.0276 14.2834 37.91 13.4499 37.6643 12.7768C37.4185 12.0929 37.098 11.548 36.6812 11.1099L36.6599 11.0992ZM35.3776 16.4952H33.6039C32.7811 16.4952 32.2362 16.367 31.9584 16.1212C31.6806 15.8755 31.5417 15.4374 31.5417 14.8069C31.5417 14.1231 31.7019 13.6102 32.0225 13.2469C32.3431 12.8836 32.8025 12.7127 33.3902 12.7127C34.0206 12.7127 34.5015 12.8943 34.8541 13.279C35.2067 13.6636 35.3776 14.3047 35.3776 15.2344V16.4952ZM59.0987 16.0465C59.3765 15.7474 59.5154 15.32 59.5154 14.743H59.5368V11.5802H62.2722V15.3841C62.2722 16.0679 62.1546 16.6556 61.9196 17.1685C61.6845 17.6814 61.3746 18.0981 60.99 18.4293C60.6053 18.7606 60.1672 19.0063 59.6757 19.1773C59.1842 19.3483 58.682 19.4337 58.1584 19.4337H48.6913C47.9541 19.4337 47.3236 19.3269 46.8001 19.1025C46.2658 18.8781 45.8384 18.5789 45.5072 18.205C45.1759 17.831 44.9302 17.3929 44.7806 16.8907C44.631 16.3885 44.5562 15.8649 44.5562 15.3093V11.5054H47.2916V14.6147C47.2916 15.2024 47.4198 15.6619 47.6763 15.9931C47.9327 16.3137 48.4776 16.4846 49.3004 16.4846H57.7203C58.3614 16.4846 58.8209 16.3457 59.0987 16.0465ZM76.0668 7.31673L80.7576 12.7341L80.779 12.7448C81.2598 13.3004 81.6124 13.8454 81.8368 14.3903C82.0612 14.9352 82.168 15.4695 82.168 15.9824C82.168 16.4632 82.0826 16.9227 81.9116 17.3394C81.7406 17.7561 81.4842 18.1301 81.1423 18.44C80.8003 18.7499 80.3729 18.9956 79.8707 19.1773C79.3685 19.3589 78.7808 19.4444 78.1184 19.4444H70.9593L70.8204 16.4953H77.6589C78.5351 16.4953 78.9732 16.164 78.9732 15.5016C78.9732 15.181 78.8129 14.8498 78.5137 14.5078L73.9511 9.30417L76.0668 7.31673ZM110.505 5.70323H107.47V8.43863H110.505V5.70323ZM147.54 14.7429V11.5801L147.561 11.5587H150.297V14.9138C150.297 16.3991 149.923 17.521 149.175 18.2797C148.427 19.0383 147.369 19.423 146.012 19.423H142.528C141.855 19.423 141.225 19.3161 140.68 19.0917C140.135 18.8674 139.643 18.4186 139.237 17.7347C138.789 18.4186 138.297 18.8674 137.784 19.0917C137.261 19.3161 136.705 19.423 136.117 19.423H133.628C132.955 19.423 132.335 19.3161 131.768 19.0917C131.202 18.8674 130.711 18.4186 130.305 17.7347C129.877 18.4186 129.386 18.8674 128.841 19.0917C128.296 19.3161 127.794 19.423 127.323 19.423C126.704 19.423 126.137 19.3161 125.624 19.0917C125.122 18.8674 124.652 18.4186 124.246 17.7347C123.819 18.4186 123.306 18.8674 122.729 19.0917C122.152 19.3161 121.553 19.423 120.923 19.423C120.25 19.423 119.63 19.3161 119.064 19.0917C118.497 18.8674 118.006 18.4186 117.6 17.7347C117.162 18.4186 116.681 18.8674 116.147 19.0917C115.602 19.3161 115.035 19.423 114.426 19.423H112.492C111.819 19.423 111.189 19.3161 110.644 19.0917C110.099 18.8674 109.607 18.4186 109.201 17.7347C108.753 18.4186 108.261 18.8674 107.748 19.0917C107.225 19.3161 106.669 19.423 106.081 19.423H104.201C103.763 19.423 103.367 19.4444 103.025 19.4764C102.683 19.5191 102.342 19.6367 101.989 19.829C101.636 20.032 101.262 20.3419 100.846 20.7586C100.429 21.1753 99.9267 21.7737 99.339 22.543L96.7639 25.9196C96.1228 25.9196 95.5244 25.8341 94.9688 25.6417C94.4131 25.4494 93.943 25.1716 93.537 24.7976C93.1309 24.4236 92.821 23.9428 92.586 23.3658C92.3509 22.7888 92.2334 22.105 92.2334 21.3143V19.4337H88.8782C88.376 19.4337 87.9059 19.3696 87.4464 19.2306C86.987 19.0917 86.5916 18.8674 86.2497 18.5468C85.9184 18.2262 85.6406 17.7988 85.4483 17.2753C85.2453 16.7517 85.1491 16.0999 85.1491 15.3092V2.80756H87.8845V14.6574C87.8845 15.2344 88.0127 15.6832 88.2692 16.0144C88.5256 16.335 88.9103 16.5059 89.4339 16.5059H92.2227V14.6788C92.2227 14.0377 92.2868 13.3859 92.4257 12.7234C92.5646 12.0609 92.7997 11.4625 93.1416 10.939C93.4728 10.4047 93.943 9.9773 94.52 9.63537C95.097 9.29345 95.8343 9.12249 96.7318 9.12249C97.3943 9.12249 97.9713 9.22934 98.4842 9.45373C98.9864 9.67811 99.4138 9.9773 99.7557 10.3513C100.098 10.7253 100.354 11.1634 100.536 11.6869C100.717 12.2105 100.803 12.7661 100.803 13.3538C100.803 14.2086 100.643 14.9886 100.311 15.6832C99.9801 16.3884 99.542 16.9975 98.9757 17.5103C98.4094 18.0339 97.7683 18.4506 97.031 18.7605C96.2937 19.0704 95.5244 19.2627 94.723 19.3375V21.1112C94.723 21.7417 94.8405 22.1904 95.0863 22.4683C95.3214 22.7354 95.6633 22.9277 96.0907 23.0132L98.3666 20.1389C99.0826 19.2627 99.6809 18.5895 100.151 18.098C100.621 17.6065 101.07 17.2432 101.465 17.0081C101.861 16.7731 102.277 16.6235 102.683 16.57C103.1 16.5059 103.602 16.4846 104.19 16.4846H106.071C107.267 16.4846 107.866 15.9076 107.866 14.7429V11.5801H110.623V14.7429C110.623 15.3626 110.815 15.8114 111.2 16.0785C111.584 16.3457 112.033 16.4846 112.557 16.4846H114.437C115.666 16.4846 116.286 15.9076 116.286 14.7429V11.5801H119V14.7429C119 15.3626 119.192 15.8114 119.577 16.0785C119.961 16.3457 120.399 16.4846 120.902 16.4846C122.237 16.4846 122.91 15.9076 122.91 14.7429V11.5801H125.646V14.7429C125.646 15.3626 125.806 15.8114 126.137 16.0785C126.469 16.3457 126.853 16.4846 127.302 16.4846C128.424 16.4846 128.99 15.9076 128.99 14.7429V11.5801H131.726V14.7429C131.726 15.3626 131.918 15.8114 132.303 16.0785C132.687 16.3457 133.125 16.4846 133.606 16.4846H136.096C137.293 16.4846 137.891 15.9076 137.891 14.7429V11.5801H140.648V14.7429C140.648 15.3626 140.84 15.8114 141.225 16.0785C141.609 16.3457 142.058 16.4846 142.582 16.4846H145.745C146.941 16.4846 147.54 15.9076 147.54 14.7429ZM95.1932 12.5952C94.8619 13.0226 94.7016 13.6744 94.7016 14.5292V16.5914C95.3428 16.538 95.8877 16.4205 96.3365 16.2388C96.7852 16.0678 97.1485 15.8541 97.4477 15.5977C97.7362 15.3413 97.9499 15.0634 98.0888 14.7643C98.2277 14.4544 98.2919 14.1445 98.2919 13.824C98.2919 13.2897 98.1529 12.8409 97.8644 12.4883C97.5759 12.1357 97.1592 11.9541 96.6036 11.9541C95.9945 11.9541 95.5244 12.1678 95.1932 12.5952ZM142.005 24.7122V26.3577H144.142V24.7122C144.142 24.2955 144.484 23.9536 144.901 23.9536H148.202V21.8166H144.901C143.309 21.8166 142.005 23.1201 142.005 24.7122ZM127.794 4.45319V6.25898V6.26967C127.794 7.86176 126.49 9.16535 124.898 9.16535H121.596V7.02832H124.898C125.315 7.02832 125.657 6.68639 125.657 6.26967V4.45319H127.794ZM18.773 6.25898V4.45319H16.6359V6.26967C16.6359 6.68639 16.294 7.02832 15.8773 7.02832H12.5756V9.16535H15.8773C17.4694 9.16535 18.773 7.86176 18.773 6.26967V6.25898ZM132.794 21.8166H137.923V23.9536H132.794V21.8166ZM55.9679 11.6336H50.8391V13.7706H55.9679V11.6336ZM18.3989 22.6179H23.5278V24.7549H18.3989V22.6179Z" fill="url(#paint0_linear_460_2807)"/>
<path id="Union_2" fill-rule="evenodd" clip-rule="evenodd" d="M68.1276 0.670532H65.3922V17.2966H68.1276V0.670532ZM10.4812 12.7662C10.4812 13.4286 10.353 14.0377 10.1073 14.5933H10.0859C9.84014 15.149 9.49821 15.6191 9.0708 16.0251C8.6434 16.4312 8.13051 16.741 7.53214 16.9654C6.93377 17.1898 6.28198 17.2967 5.58744 17.2967C4.89291 17.2967 4.26248 17.1898 3.68548 16.9975C3.10848 16.8052 2.61697 16.5167 2.21093 16.1534C1.80489 15.7901 1.48434 15.352 1.25995 14.8498C1.03556 14.3476 0.928711 13.7919 0.928711 13.1615C0.928711 12.6486 0.992822 12.1571 1.13173 11.687C1.25995 11.2168 1.46297 10.7574 1.71941 10.2872C1.98654 9.81706 2.3071 9.34691 2.70245 8.87677C3.0978 8.40662 3.54658 7.89373 4.07015 7.3381L2.84135 6.10931L4.68989 4.12187C5.80114 5.21176 6.73075 6.15205 7.46803 6.96412C8.20531 7.77619 8.80368 8.50279 9.25245 9.15458C9.70123 9.80637 10.0218 10.4154 10.2034 10.9924C10.3851 11.5694 10.4812 12.1571 10.4812 12.7662ZM5.68361 14.3476C6.34609 14.3476 6.85898 14.1659 7.21159 13.8133C7.5642 13.45 7.74584 13.0333 7.74584 12.5525C7.74584 12.3388 7.71379 12.1251 7.66036 11.922C7.60694 11.719 7.50009 11.4839 7.36118 11.2382C7.22227 10.9924 7.00857 10.7039 6.73075 10.3941C6.45294 10.0842 6.10033 9.71021 5.67292 9.2828C5.23483 9.71021 4.87154 10.0949 4.60441 10.4261C4.33728 10.7574 4.12357 11.0565 3.98467 11.313C3.84576 11.5694 3.74959 11.8045 3.70685 12.0075C3.66411 12.2105 3.64274 12.4136 3.64274 12.6059C3.64274 13.0653 3.8137 13.4714 4.15563 13.824C4.49755 14.1766 5.02113 14.3476 5.68361 14.3476ZM21.4549 14.3475C22.6516 14.3475 23.25 13.7705 23.25 12.6058L23.2393 12.5951V9.4323H25.9747V12.7874C25.9747 14.2727 25.6007 15.3946 24.8528 16.1533C24.1048 16.9119 23.047 17.2966 21.69 17.2966H18.6874C18.3348 17.2966 17.9715 17.2432 17.6189 17.1256C17.2663 17.0081 16.9564 16.7623 16.7107 16.4097V16.8692C16.7107 17.8415 16.5504 18.7391 16.2299 19.5832C15.9093 20.4273 15.4712 21.1539 14.9049 21.7843C14.3493 22.4148 13.6761 22.9063 12.8961 23.2589C12.1161 23.6115 11.2719 23.7932 10.3637 23.7932H8.67545L8.53654 20.8654H9.65848C10.4599 20.8654 11.1437 20.7586 11.71 20.5342C12.2657 20.3098 12.7358 20.0106 13.0884 19.6366C13.4517 19.252 13.7082 18.8246 13.8684 18.3437C14.0287 17.8629 14.1142 17.3714 14.1142 16.8692V9.44298H16.8496V12.6378C16.8496 13.2042 17.0206 13.6316 17.3732 13.9201C17.7151 14.2086 18.1639 14.3475 18.6981 14.3475H21.4549ZM36.6599 8.96218C36.2431 8.53477 35.773 8.2249 35.2281 8.02188C34.6831 7.82955 34.1061 7.7227 33.4971 7.7227C32.7491 7.7227 32.0866 7.8616 31.5096 8.13942C30.9326 8.41723 30.4625 8.79121 30.0778 9.25067C29.6931 9.72082 29.4046 10.2551 29.2016 10.8748C28.9986 11.4946 28.9024 12.1464 28.9024 12.8409C28.9024 13.5354 28.9665 14.1658 29.1055 14.7215C29.2444 15.2771 29.4794 15.7473 29.8214 16.1319C30.1633 16.5166 30.6227 16.8051 31.2211 17.0081C31.8088 17.2004 32.5674 17.3073 33.4971 17.3073H35.3242C35.2922 17.7881 35.1853 18.2476 35.0037 18.6857C34.822 19.1238 34.5763 19.5084 34.2557 19.829C33.9351 20.1495 33.5291 20.406 33.0376 20.5983C32.5461 20.7906 31.9584 20.8761 31.2852 20.8761H28.5498L28.7101 23.8039H31.4241C32.4392 23.8039 33.3688 23.6115 34.1809 23.2376C35.0037 22.8636 35.6982 22.3614 36.2645 21.7203C36.8308 21.0898 37.2582 20.3526 37.5681 19.5084C37.8673 18.6643 38.0276 17.7881 38.0276 16.8799V13.1294C38.0276 12.1464 37.91 11.3129 37.6643 10.6397C37.4185 9.9559 37.098 9.41095 36.6812 8.97286L36.6599 8.96218ZM35.3776 14.3582H33.6039C32.7811 14.3582 32.2362 14.23 31.9584 13.9842C31.6806 13.7384 31.5417 13.3004 31.5417 12.6699C31.5417 11.9861 31.7019 11.4732 32.0225 11.1099C32.3431 10.7466 32.8025 10.5756 33.3902 10.5756C34.0206 10.5756 34.5015 10.7573 34.8541 11.1419C35.2067 11.5266 35.3776 12.1677 35.3776 13.0973V14.3582ZM59.0987 13.9095C59.3765 13.6103 59.5154 13.1829 59.5154 12.6059H59.5368V9.44313H62.2722V13.247C62.2722 13.9309 62.1546 14.5186 61.9196 15.0315C61.6845 15.5444 61.3746 15.9611 60.99 16.2923C60.6053 16.6236 60.1672 16.8693 59.6757 17.0403C59.1842 17.2112 58.682 17.2967 58.1584 17.2967H48.6913C47.9541 17.2967 47.3236 17.1899 46.8001 16.9655C46.2658 16.7411 45.8384 16.4419 45.5072 16.0679C45.1759 15.6939 44.9302 15.2559 44.7806 14.7537C44.631 14.2515 44.5562 13.7279 44.5562 13.1722V9.36833H47.2916V12.4777C47.2916 13.0654 47.4198 13.5249 47.6763 13.8561C47.9327 14.1767 48.4776 14.3476 49.3004 14.3476H57.7203C58.3614 14.3476 58.8209 14.2087 59.0987 13.9095ZM76.0668 5.1797L80.7576 10.5971L80.779 10.6078C81.2598 11.1634 81.6124 11.7083 81.8368 12.2533C82.0612 12.7982 82.168 13.3325 82.168 13.8454C82.168 14.3262 82.0826 14.7857 81.9116 15.2024C81.7406 15.6191 81.4842 15.9931 81.1423 16.303C80.8003 16.6128 80.3729 16.8586 79.8707 17.0402C79.3685 17.2219 78.7808 17.3074 78.1184 17.3074H70.9593L70.8204 14.3583H77.6589C78.5351 14.3583 78.9732 14.027 78.9732 13.3645C78.9732 13.044 78.8129 12.7127 78.5137 12.3708L73.9511 7.16714L76.0668 5.1797ZM110.505 3.56621H107.47V6.30161H110.505V3.56621ZM147.54 12.6059V9.44305L147.561 9.42168H150.297V12.7768C150.297 14.2621 149.923 15.384 149.175 16.1426C148.427 16.9013 147.369 17.286 146.012 17.286H142.529C141.855 17.286 141.225 17.1791 140.68 16.9547C140.135 16.7303 139.644 16.2816 139.238 15.5977C138.789 16.2816 138.297 16.7303 137.784 16.9547C137.261 17.1791 136.705 17.286 136.117 17.286H133.628C132.955 17.286 132.335 17.1791 131.769 16.9547C131.202 16.7303 130.711 16.2816 130.305 15.5977C129.877 16.2816 129.386 16.7303 128.841 16.9547C128.296 17.1791 127.794 17.286 127.324 17.286C126.704 17.286 126.138 17.1791 125.625 16.9547C125.122 16.7303 124.652 16.2816 124.246 15.5977C123.819 16.2816 123.306 16.7303 122.729 16.9547C122.152 17.1791 121.554 17.286 120.923 17.286C120.25 17.286 119.63 17.1791 119.064 16.9547C118.498 16.7303 118.006 16.2816 117.6 15.5977C117.162 16.2816 116.681 16.7303 116.147 16.9547C115.602 17.1791 115.036 17.286 114.427 17.286H112.493C111.819 17.286 111.189 17.1791 110.644 16.9547C110.099 16.7303 109.608 16.2816 109.202 15.5977C108.753 16.2816 108.261 16.7303 107.748 16.9547C107.225 17.1791 106.669 17.286 106.081 17.286H104.201C103.763 17.286 103.367 17.3073 103.026 17.3394C102.684 17.3821 102.342 17.4997 101.989 17.692C101.636 17.895 101.262 18.2049 100.846 18.6216C100.429 19.0383 99.9268 19.6367 99.3391 20.406L96.764 23.7825C96.1229 23.7825 95.5245 23.6971 94.9689 23.5047C94.4133 23.3124 93.9431 23.0346 93.5371 22.6606C93.1311 22.2866 92.8212 21.8058 92.5861 21.2288C92.351 20.6518 92.2335 19.9679 92.2335 19.1772V17.2966H88.8784C88.3762 17.2966 87.906 17.2325 87.4465 17.0936C86.9871 16.9547 86.5917 16.7303 86.2498 16.4098C85.9186 16.0892 85.6407 15.6618 85.4484 15.1382C85.2454 14.6147 85.1492 13.9629 85.1492 13.1722V0.670532H87.8846V12.5204C87.8846 13.0974 88.0129 13.5462 88.2693 13.8774C88.5257 14.1979 88.9104 14.3689 89.434 14.3689H92.2228V12.5417C92.2228 11.9006 92.2869 11.2488 92.4258 10.5864C92.5647 9.92388 92.7998 9.32551 93.1417 8.80194C93.473 8.26768 93.9431 7.84028 94.5201 7.49835C95.0971 7.15642 95.8344 6.98546 96.7319 6.98546C97.3944 6.98546 97.9714 7.09231 98.4843 7.3167C98.9865 7.54109 99.4139 7.84028 99.7559 8.21426C100.098 8.58824 100.354 9.02633 100.536 9.5499C100.718 10.0735 100.803 10.6291 100.803 11.2168C100.803 12.0716 100.643 12.8516 100.311 13.5462C99.9802 14.2514 99.5421 14.8604 98.9758 15.3733C98.4095 15.8969 97.7684 16.3136 97.0311 16.6235C96.2939 16.9333 95.5245 17.1257 94.7231 17.2005V18.9742C94.7231 19.6046 94.8407 20.0534 95.0864 20.3312C95.3215 20.5984 95.6634 20.7907 96.0908 20.8762L98.3668 18.0019C99.0827 17.1257 99.6811 16.4525 100.151 15.961C100.621 15.4695 101.07 15.1062 101.465 14.8711C101.861 14.636 102.278 14.4864 102.684 14.433C103.1 14.3689 103.603 14.3475 104.19 14.3475H106.071C107.268 14.3475 107.866 13.7705 107.866 12.6059V9.44305H110.623V12.6059C110.623 13.2256 110.815 13.6744 111.2 13.9415C111.584 14.2086 112.033 14.3475 112.557 14.3475H114.437C115.666 14.3475 116.286 13.7705 116.286 12.6059V9.44305H119V12.6059C119 13.2256 119.192 13.6744 119.577 13.9415C119.961 14.2086 120.4 14.3475 120.902 14.3475C122.237 14.3475 122.911 13.7705 122.911 12.6059V9.44305H125.646V12.6059C125.646 13.2256 125.806 13.6744 126.138 13.9415C126.469 14.2086 126.853 14.3475 127.302 14.3475C128.424 14.3475 128.99 13.7705 128.99 12.6059V9.44305H131.726V12.6059C131.726 13.2256 131.918 13.6744 132.303 13.9415C132.688 14.2086 133.126 14.3475 133.606 14.3475H136.096C137.293 14.3475 137.891 13.7705 137.891 12.6059V9.44305H140.648V12.6059C140.648 13.2256 140.84 13.6744 141.225 13.9415C141.61 14.2086 142.058 14.3475 142.582 14.3475H145.745C146.942 14.3475 147.54 13.7705 147.54 12.6059ZM95.1933 10.4581C94.862 10.8855 94.7018 11.5373 94.7018 12.3922V14.4544C95.3429 14.401 95.8878 14.2834 96.3366 14.1018C96.7854 13.9308 97.1487 13.7171 97.4479 13.4607C97.7364 13.2042 97.9501 12.9264 98.089 12.6272C98.2279 12.3174 98.292 12.0075 98.292 11.6869C98.292 11.1527 98.1531 10.7039 97.8646 10.3513C97.5761 9.99868 97.1594 9.81703 96.6037 9.81703C95.9947 9.81703 95.5245 10.0307 95.1933 10.4581ZM142.005 22.5752V24.2207H144.142V22.5752C144.142 22.1585 144.484 21.8166 144.901 21.8166H148.202V19.6795H144.901C143.309 19.6795 142.005 20.9831 142.005 22.5752ZM127.794 2.31617V4.12196V4.13265C127.794 5.72473 126.49 7.02832 124.898 7.02832H121.596V4.89129H124.898C125.315 4.89129 125.657 4.54937 125.657 4.13265V2.31617H127.794ZM18.773 4.12196V2.31617H16.6359V4.13265C16.6359 4.54937 16.294 4.89129 15.8773 4.89129H12.5756V7.02832H15.8773C17.4694 7.02832 18.773 5.72473 18.773 4.13265V4.12196ZM132.794 19.6795H137.923V21.8166H132.794V19.6795ZM55.9679 9.49647H50.8391V11.6335H55.9679V9.49647ZM18.3989 20.4809H23.5278V22.6179H18.3989V20.4809Z" fill="url(#paint1_linear_460_2807)"/>
</g>
<defs>
<linearGradient id="paint0_linear_460_2807" x1="17.4682" y1="7.89784" x2="18.1503" y2="25.6977" gradientUnits="userSpaceOnUse">
<stop stop-color="#9B3E15"/>
<stop offset="1" stop-color="#7F1605"/>
</linearGradient>
<linearGradient id="paint1_linear_460_2807" x1="70.17" y1="33.3315" x2="77.3513" y2="-28.9415" gradientUnits="userSpaceOnUse">
<stop offset="0.229167" stop-color="white"/>
<stop offset="1" stop-color="#FFB667"/>
</linearGradient>
</defs>
</svg>
