<svg width="74" height="63" viewBox="0 0 74 63" fill="none" xmlns="http://www.w3.org/2000/svg">
<g id="Group 495">
<g id="Group 293">
<path id="Vector" d="M18.132 23.9367L15.2516 33.9127L4.16242 30.7062C1.38618 29.9033 -0.235099 26.9934 0.590648 24.2224C0.993374 22.8712 1.90706 21.8021 3.05932 21.1658C4.22375 20.5231 5.63172 20.3223 7.0027 20.7185L18.132 23.9367Z" fill="#EDE6E0"/>
<path id="Vector_2" d="M13.2107 33.3218L8.92188 32.0816C9.02695 31.4665 9.16992 30.8396 9.35211 30.2083C10.3641 26.7039 12.3259 23.9659 14.3769 22.8499L16.0911 23.3454" fill="#B09D97"/>
<path id="Vector_3" d="M63.4842 43.2414C59.4713 57.1391 44.9597 65.1501 31.0717 61.134C21.4829 58.3612 14.6988 50.5804 12.7379 41.4547C12.208 38.9874 12.0303 36.4213 12.2455 33.8295C12.3866 32.1236 12.6987 30.406 13.1916 28.6987C13.6845 26.991 14.3362 25.3722 15.1259 23.8536C15.3063 23.5065 15.4939 23.1654 15.6882 22.8291C21.5713 12.6569 33.8123 7.39655 45.6041 10.8061C59.4916 14.8218 67.497 29.3436 63.4842 43.2414Z" fill="#EDE6E0"/>
<path id="Vector_4" d="M57.7034 41.5724C55.4192 49.4823 48.695 54.9024 41.0265 55.903C38.3752 56.2491 35.6111 56.0668 32.8782 55.2766C22.2414 52.201 16.1103 41.0783 19.1837 30.4339C20.5366 25.749 23.4473 21.9374 27.1891 19.4002C31.9487 16.1729 38.0537 15.0077 44.0089 16.7298C54.6457 19.8059 60.7773 30.9286 57.7034 41.5724Z" fill="#74564C"/>
<path id="Vector_5" d="M53.4461 43.9678C51.3206 49.8252 46.625 54.1107 41.027 55.9028C41.0265 55.9028 41.0261 55.9033 41.0256 55.9033C38.3743 56.2494 35.6107 56.0671 32.8782 55.2769C22.2414 52.2013 16.1103 41.0786 19.1837 30.4343C20.5366 25.7493 23.4468 21.9381 27.1886 19.4009C27.1891 19.4005 27.1895 19.4005 27.19 19.4C30.907 17.7523 35.1543 17.2518 39.3746 18.205C50.8381 20.7945 57.4571 32.9137 53.4461 43.9678Z" fill="#B09D97"/>
<g id="Group 296" opacity="0.6">
<g id="Group 420">
<path id="Vector_6" d="M28.75 33.539C30.7256 32.4196 32.7012 32.4196 34.6767 33.539" stroke="#74564C" stroke-width="2" stroke-linecap="round" stroke-linejoin="round"/>
<path id="Vector_7" d="M41.2734 33.539C43.249 32.4196 45.2246 32.4196 47.2002 33.539" stroke="#74564C" stroke-width="2" stroke-linecap="round" stroke-linejoin="round"/>
</g>
<path id="Ellipse 16" d="M41.3058 41.8401C41.3058 43.3114 39.8137 44.5042 37.9732 44.5042C36.1327 44.5042 34.6406 43.3114 34.6406 41.8401" stroke="#74564C" stroke-width="2" stroke-linecap="round" stroke-linejoin="round"/>
</g>
</g>
<g id="Group 173">
<rect id="Rectangle 55" x="51.2891" y="0.892822" width="21.957" height="21.957" rx="10.9785" fill="#44B076"/>
<path id="Vector_8" d="M61.283 15.4127L67.17 9.52492L65.9926 8.34753L61.283 13.0579L58.9274 10.7023L57.75 11.8797L61.283 15.4127Z" fill="white"/>
</g>
</g>
</svg>
